<?xml version="1.0" standalone="no"?>
<!DOCTYPE svg PUBLIC "-//W3C//DTD SVG 20010904//EN"
 "http://www.w3.org/TR/2001/REC-SVG-20010904/DTD/svg10.dtd">
<svg version="1.0" xmlns="http://www.w3.org/2000/svg"
 width="828.000000pt" height="1319.000000pt" viewBox="0 0 828.000000 1319.000000"
 preserveAspectRatio="xMidYMid meet">
<metadata>
Created by potrace 1.16, written by Peter Selinger 2001-2019
</metadata>
<g transform="translate(0.000000,1319.000000) scale(0.100000,-0.100000)"
fill="#000000" stroke="none">
<path d="M5233 13050 c-667 -65 -1190 -378 -1505 -900 -128 -212 -219 -467
-272 -764 l-21 -118 -70 -25 c-769 -274 -1885 -681 -2672 -974 l-413 -154 0
-30 c0 -60 50 -421 86 -618 l36 -198 -41 -142 c-126 -444 -187 -775 -198
-1067 -11 -322 40 -516 168 -635 77 -70 144 -96 270 -102 158 -9 264 37 341
148 41 59 84 175 94 254 4 28 10 55 13 62 4 8 30 -17 68 -65 292 -370 743
-758 1351 -1167 187 -125 223 -153 219 -170 -3 -11 -46 -130 -95 -265 -110
-298 -183 -535 -223 -729 -36 -172 -51 -452 -30 -563 54 -285 294 -776 701
-1433 48 -77 90 -145 94 -152 4 -8 -7 -19 -32 -32 -52 -26 -119 -101 -148
-166 -14 -30 -45 -141 -69 -247 -60 -267 -182 -783 -337 -1427 -125 -523 -129
-545 -112 -559 28 -20 341 -172 469 -227 557 -237 1091 -380 1590 -425 142
-13 458 -13 605 0 362 33 794 140 1168 291 251 101 703 338 804 422 l28 22
-70 360 c-333 1710 -343 1759 -385 1831 -13 23 -40 56 -60 73 -20 17 -35 36
-33 40 2 5 107 160 233 345 387 564 517 789 595 1024 56 170 74 285 74 487 1
160 -1 177 -32 297 -56 219 -149 444 -289 702 -41 77 -80 148 -86 157 -9 14
-4 28 25 72 66 99 108 194 145 327 28 104 26 431 -5 611 l-24 136 78 99 c665
851 932 1963 743 3092 -96 577 -349 1189 -676 1641 -319 440 -868 746 -1508
842 -151 22 -455 32 -592 19z m523 -321 c448 -43 833 -233 1159 -570 434 -448
707 -1078 802 -1849 26 -218 24 -639 -5 -857 -64 -478 -201 -869 -422 -1200
-71 -107 -198 -269 -205 -261 -1 2 4 64 13 138 21 179 23 869 4 1045 -31 275
-87 545 -159 755 -53 158 -122 310 -140 310 -13 0 -15 -9 -9 -47 30 -220 26
-564 -9 -797 -63 -417 -235 -732 -486 -888 l-26 -17 -6 232 c-12 485 -106 936
-289 1397 -63 160 -170 375 -183 369 -13 -5 -12 -20 8 -154 55 -364 50 -750
-14 -1004 -64 -258 -195 -448 -366 -535 -40 -20 -74 -36 -76 -36 -3 0 -8 42
-11 93 -34 442 -171 944 -381 1393 -79 169 -206 394 -222 394 -7 0 -13 -2 -13
-5 0 -3 20 -74 44 -158 239 -825 137 -1364 -322 -1705 -81 -60 -210 -137 -218
-130 -2 2 -11 71 -19 154 -47 451 -135 877 -265 1279 -108 335 -154 619 -153
950 1 732 272 1235 812 1506 304 152 787 234 1157 198z m-2420 -1901 c62 -74
138 -294 132 -384 l-3 -49 -85 -43 c-381 -190 -2407 -912 -2561 -912 -53 0
-128 164 -136 300 -9 137 -2 146 159 224 368 179 1676 670 2223 836 242 73
233 72 271 28z m1715 -2413 c29 -220 56 -404 60 -409 4 -4 177 145 386 331
l378 340 12 -421 c7 -232 16 -461 20 -511 l8 -89 340 303 c187 167 355 318
374 335 l33 31 -5 -260 c-6 -275 -20 -403 -63 -588 -22 -91 -29 -108 -47 -112
-300 -68 -932 -109 -1687 -108 -393 0 -513 3 -635 17 -355 40 -659 127 -940
268 -55 27 -105 54 -112 60 -13 11 -9 94 8 173 41 182 227 446 434 615 133
108 343 240 354 221 3 -5 37 -156 75 -335 38 -179 72 -326 75 -326 3 0 202
196 441 435 239 239 435 433 436 432 1 -1 25 -182 55 -402z m-3965 246 c33
-22 149 -122 259 -222 494 -450 727 -640 1051 -856 569 -380 939 -530 1509
-612 305 -44 488 -55 950 -55 522 -1 816 16 1630 94 115 11 244 20 286 20 74
0 78 -1 103 -30 45 -54 48 -202 6 -358 -32 -117 -51 -142 -130 -169 -214 -71
-681 -138 -1130 -163 -948 -52 -1991 90 -2652 361 -601 246 -1178 694 -1582
1228 -223 295 -386 611 -386 750 0 63 8 64 86 12z m3664 -2722 c0 -41 17 -522
23 -647 l3 -63 -65 6 c-312 29 -508 72 -856 188 -234 79 -505 179 -505 186 0
19 131 133 193 169 207 118 564 179 1165 201 l42 1 0 -41z m1824 -501 c-146
-903 -204 -1175 -297 -1395 -69 -163 -129 -227 -283 -300 -67 -32 -90 -38
-165 -41 -71 -4 -99 0 -154 18 -146 49 -323 205 -391 346 -56 117 -68 190 -67
417 0 108 2 199 4 202 3 2 110 11 239 20 452 30 627 52 651 81 23 28 -23 119
-146 290 -15 20 -12 23 107 82 125 62 362 203 446 266 56 41 60 42 56 14z
m-3114 -231 c113 -41 241 -88 286 -104 l81 -28 -68 -145 c-37 -80 -68 -150
-68 -156 -1 -12 19 -14 269 -39 169 -17 399 -19 452 -5 20 6 87 44 148 85 108
72 115 75 171 75 l59 0 1 -62 c1 -35 6 -196 13 -358 l11 -295 -77 -47 c-133
-81 -229 -157 -343 -273 -132 -134 -185 -166 -291 -173 -115 -7 -223 33 -374
139 -220 155 -357 376 -442 709 -45 181 -59 281 -65 481 -6 197 0 284 20 276
7 -2 104 -38 217 -80z m1645 -1976 c33 -15 94 -56 136 -90 94 -75 137 -91 242
-91 l80 0 -5 -69 c-14 -197 -185 -377 -438 -462 -120 -40 -289 -51 -410 -25
-231 48 -409 216 -480 454 -12 40 -21 75 -19 77 3 2 78 9 169 15 304 20 373
40 460 131 91 95 159 111 265 60z m-1681 -646 c349 -116 948 -377 1036 -451
33 -28 56 -92 99 -274 116 -491 208 -1126 186 -1295 -13 -106 -101 -164 -231
-152 -68 7 -159 44 -189 77 -32 35 -63 173 -125 548 -93 572 -109 661 -132
745 -18 70 -25 82 -62 109 -47 35 -187 103 -426 207 -214 93 -358 169 -383
202 -65 89 -15 329 70 329 13 0 84 -20 157 -45z m3040 -65 c24 -41 34 -192 17
-256 -24 -88 -60 -111 -389 -245 -189 -78 -328 -144 -364 -172 -37 -29 -59
-103 -253 -832 -36 -137 -82 -299 -102 -358 -31 -92 -41 -113 -75 -141 -105
-90 -310 -93 -394 -5 -27 29 -29 36 -32 130 -12 324 196 1244 327 1451 22 35
45 53 107 85 146 76 504 212 804 307 203 63 249 75 295 73 33 -2 42 -7 59 -37z"/>
</g>
</svg>
