<?xml version="1.0" standalone="no"?>
<!DOCTYPE svg PUBLIC "-//W3C//DTD SVG 20010904//EN"
 "http://www.w3.org/TR/2001/REC-SVG-20010904/DTD/svg10.dtd">
<svg version="1.0" xmlns="http://www.w3.org/2000/svg"
 width="776.000000pt" height="1219.000000pt" viewBox="0 0 776.000000 1219.000000"
 preserveAspectRatio="xMidYMid meet">
<metadata>
Created by potrace 1.16, written by Peter Selinger 2001-2019
</metadata>
<g transform="translate(0.000000,1219.000000) scale(0.100000,-0.100000)"
fill="#000000" stroke="none">
<path d="M5590 12019 c-388 -65 -727 -367 -990 -884 l-69 -134 -47 77 c-203
329 -504 603 -849 773 -127 63 -152 70 -140 42 76 -174 80 -391 15 -713 -42
-207 -153 -558 -237 -749 l-23 -54 -63 110 c-199 349 -522 696 -870 935 -49
33 -92 56 -97 52 -7 -8 -58 -283 -104 -559 -27 -156 -64 -455 -77 -602 -15
-184 -6 -646 15 -803 35 -254 104 -564 186 -835 l39 -130 -15 -70 c-23 -116
-29 -327 -10 -415 27 -128 70 -200 213 -356 184 -200 223 -254 223 -307 0 -21
-10 -28 -77 -52 -594 -214 -1152 -604 -1568 -1095 -775 -916 -1062 -2155 -769
-3322 322 -1279 1320 -2309 2587 -2668 167 -48 386 -93 567 -117 194 -26 727
-26 920 0 718 97 1330 358 1885 801 135 109 386 355 504 496 493 589 782 1273
863 2050 17 170 14 585 -6 755 -89 735 -353 1373 -795 1924 -416 519 -985 935
-1574 1152 l-119 44 4 76 c7 127 61 195 221 280 168 90 227 186 227 373 0 242
-131 491 -321 612 -24 15 -75 40 -114 55 -81 32 -83 36 -61 132 37 157 133
310 311 496 137 142 181 204 226 318 127 317 129 738 5 968 -166 305 -151 644
58 1308 17 54 22 51 -74 36z m-1583 -1009 c84 -148 153 -367 208 -657 76 -399
98 -473 150 -493 37 -14 40 -13 76 17 40 34 87 132 174 368 163 436 274 646
425 805 54 55 63 62 72 47 22 -40 141 -369 173 -479 99 -339 85 -573 -46 -774
-35 -53 -109 -135 -234 -258 -188 -187 -243 -256 -301 -381 -52 -112 -64 -179
-79 -445 -17 -301 -27 -343 -100 -416 -59 -60 -122 -87 -256 -110 -69 -12
-101 -13 -146 -4 -166 30 -320 178 -434 418 -124 261 -208 678 -196 972 12
280 69 482 264 944 131 310 163 402 170 494 l6 72 22 -32 c12 -18 35 -58 52
-88z m-1237 -625 c178 -362 225 -501 300 -895 96 -503 211 -817 441 -1204 l23
-39 -78 7 c-233 21 -506 174 -737 413 -203 210 -309 415 -366 708 -13 67 -17
141 -17 290 0 232 20 383 84 642 34 137 122 432 137 456 8 13 104 -157 213
-378z m574 -3582 c-389 -489 -511 -870 -338 -1062 86 -95 213 -139 429 -148
228 -9 467 31 770 127 245 78 441 110 679 110 280 0 637 -58 911 -148 812
-267 1346 -794 1494 -1474 l19 -87 -72 64 c-286 260 -633 420 -1014 469 -564
73 -1129 -100 -1667 -508 -129 -98 -224 -184 -510 -466 -271 -266 -456 -432
-660 -591 -461 -360 -900 -589 -1285 -670 -82 -18 -138 -22 -260 -23 -173 0
-270 18 -401 74 -389 165 -698 639 -796 1219 -25 150 -25 557 0 721 81 519
275 974 587 1380 105 137 372 399 515 506 337 252 714 427 1139 529 171 41
408 80 503 84 l43 1 -86 -107z m2736 -4853 c0 -6 -18 -56 -40 -113 -133 -336
-377 -628 -690 -825 -99 -62 -282 -147 -402 -186 -439 -144 -910 -116 -1312
78 -85 41 -241 135 -234 141 2 1 66 15 143 29 277 53 610 145 1015 278 522
171 1137 417 1445 576 66 34 75 37 75 22z m-4220 -415 c214 -139 359 -281 483
-476 l36 -57 -42 9 c-207 46 -430 186 -569 358 -66 82 -135 200 -163 281 l-14
41 87 -47 c48 -26 130 -75 182 -109z"/>
</g>
</svg>
