<?xml version="1.0" standalone="no"?>
<!DOCTYPE svg PUBLIC "-//W3C//DTD SVG 20010904//EN"
 "http://www.w3.org/TR/2001/REC-SVG-20010904/DTD/svg10.dtd">
<svg version="1.0" xmlns="http://www.w3.org/2000/svg"
 width="808.000000pt" height="1200.000000pt" viewBox="0 0 808.000000 1200.000000"
 preserveAspectRatio="xMidYMid meet">
<metadata>
Created by potrace 1.16, written by Peter Selinger 2001-2019
</metadata>
<g transform="translate(0.000000,1200.000000) scale(0.100000,-0.100000)"
fill="#000000" stroke="none">
<path d="M3284 11915 c-239 -52 -358 -255 -390 -666 l-7 -87 -105 -7 c-395
-27 -596 -170 -742 -529 -79 -193 -160 -528 -291 -1200 -142 -733 -211 -1157
-259 -1601 -22 -202 -6 -418 38 -518 25 -56 92 -130 146 -162 103 -60 380
-113 679 -131 65 -4 119 -10 122 -14 2 -3 -87 -144 -198 -312 -111 -168 -223
-339 -249 -381 l-47 -76 -71 -22 c-143 -43 -343 -10 -492 81 -27 17 -53 29
-56 26 -8 -9 28 -175 60 -271 60 -180 153 -335 251 -419 65 -55 165 -104 232
-112 28 -3 55 -7 61 -9 8 -2 3 -38 -16 -112 -70 -271 -66 -455 15 -619 62
-126 172 -209 345 -260 l75 -22 -4 -293 c-2 -162 -4 -295 -5 -296 0 -1 -89
-11 -196 -23 -526 -57 -970 -129 -1425 -232 -223 -50 -265 -65 -375 -139 -267
-179 -396 -500 -288 -716 29 -59 111 -133 184 -167 110 -52 152 -56 655 -63
l466 -6 -28 -56 c-54 -109 -59 -245 -14 -366 58 -153 271 -596 355 -739 l51
-87 -130 -431 c-72 -238 -127 -436 -123 -440 22 -21 490 -125 732 -162 879
-134 1784 -81 2657 155 l152 42 185 -77 c102 -42 191 -76 198 -76 23 0 176
110 250 179 l71 67 206 -79 c262 -100 670 -237 826 -276 240 -60 412 -76 511
-46 37 11 78 39 166 115 231 198 357 375 438 615 116 343 104 846 -30 1247
-125 375 -330 627 -610 748 -83 36 -474 212 -478 215 -1 1 64 69 145 151 164
166 256 287 337 444 128 248 213 584 223 886 16 448 -116 855 -465 1437 l-94
158 41 212 c108 558 160 1031 168 1557 7 412 0 498 -77 993 -76 485 -101 624
-150 823 -115 466 -266 733 -473 833 -34 17 -143 50 -242 75 -778 194 -1397
329 -1807 397 l-138 22 0 59 c0 91 -19 245 -40 333 -69 278 -227 396 -582 434
-128 14 -268 13 -344 -4z m1201 -1205 c99 -24 181 -44 182 -45 3 -2 66 -415
97 -640 29 -210 40 -329 61 -670 25 -389 77 -693 142 -822 89 -177 303 -358
508 -430 71 -24 94 -28 205 -28 117 0 129 2 183 28 71 35 163 119 213 194 113
170 167 474 129 718 -41 266 -224 880 -384 1289 -17 44 -30 81 -28 82 7 7 307
-60 389 -86 131 -43 176 -73 238 -162 229 -325 354 -715 367 -1139 6 -198 -5
-337 -43 -530 -59 -305 -177 -534 -376 -731 -206 -204 -453 -308 -733 -308
-193 0 -394 49 -576 140 -345 174 -617 485 -739 846 -26 74 -34 126 -51 304
-11 118 -23 233 -27 255 l-7 39 -67 -99 c-215 -323 -457 -495 -790 -560 -46
-9 -155 -19 -243 -22 -141 -5 -171 -3 -250 16 -232 56 -493 215 -640 390 -166
198 -240 422 -215 649 6 53 14 100 19 105 10 10 133 -44 356 -156 411 -205
604 -261 895 -260 119 0 179 5 257 22 185 39 360 110 549 223 90 53 104 65
104 88 0 44 -40 517 -56 665 -20 184 -59 449 -90 605 -13 69 -24 128 -24 131
0 4 60 -8 133 -26 72 -17 213 -51 312 -75z m895 -3651 c184 -42 330 -195 330
-343 -1 -79 -10 -98 -170 -351 -304 -479 -471 -712 -672 -936 l-80 -90 -27 17
c-145 94 -421 320 -421 346 0 5 27 41 61 81 148 176 243 346 419 752 129 297
173 385 222 441 30 34 87 69 138 85 37 11 148 10 200 -2z m-2230 -94 c271 -24
443 -61 564 -122 73 -37 155 -125 203 -218 23 -44 78 -187 122 -317 86 -250
128 -356 186 -458 19 -34 35 -66 35 -70 0 -12 -270 -298 -432 -457 -378 -373
-554 -490 -837 -560 -93 -23 -125 -26 -261 -26 -276 2 -399 30 -481 112 -54
53 -68 92 -76 204 -7 92 4 154 59 343 l40 141 59 -39 c150 -101 349 -140 524
-103 195 41 364 190 445 395 48 118 90 309 90 403 l0 39 -47 -40 c-196 -163
-511 -239 -752 -182 -96 23 -222 86 -281 139 l-40 36 93 146 c76 119 365 550
426 636 18 26 35 25 361 -2z m3536 -1142 c240 -283 361 -661 380 -1186 19
-508 -59 -685 -540 -1234 l-115 -132 -103 45 c-244 107 -559 217 -682 240
l-39 7 6 211 c14 475 71 840 177 1136 40 113 158 370 169 370 12 0 94 -138
146 -245 63 -130 106 -256 137 -398 18 -84 22 -135 22 -292 1 -205 -15 -317
-68 -490 -21 -67 -26 -101 -13 -84 2 2 33 40 69 84 178 218 262 380 304 585
13 68 16 116 11 245 -8 237 -60 454 -188 796 -32 87 -59 162 -59 167 0 21 293
242 321 242 4 0 34 -30 65 -67z m-1654 -671 c128 -88 263 -178 301 -202 37
-23 65 -46 62 -51 -8 -11 -114 -44 -207 -63 -180 -37 -614 -71 -833 -64 l-109
3 90 105 c113 131 435 442 451 435 7 -2 117 -76 245 -163z m-1826 -760 c132
-197 226 -479 250 -745 l6 -78 -88 44 c-177 89 -446 199 -589 241 l-60 18 3
256 c1 142 5 276 8 300 l5 42 73 0 c70 0 240 24 281 40 24 10 33 0 111 -118z
m2184 87 c0 -37 -131 -984 -138 -990 -27 -26 -427 -144 -655 -193 -152 -33
-152 -33 -337 -25 -163 6 -193 10 -254 33 -112 43 -306 147 -306 165 0 39 62
318 95 425 60 198 198 521 228 531 6 3 314 18 682 34 369 15 673 29 678 30 4
0 7 -4 7 -10z m-2639 -902 c227 -75 388 -146 830 -368 l377 -189 -4 -37 c-2
-21 -8 -92 -14 -158 -41 -451 -141 -874 -321 -1355 l-50 -136 -103 -17 c-56
-10 -201 -44 -322 -77 -120 -33 -248 -65 -284 -71 -36 -5 -130 -26 -210 -46
-182 -44 -282 -53 -330 -28 -104 53 -213 167 -314 328 -78 125 -372 720 -391
792 -21 84 -19 131 9 179 43 73 143 129 311 175 105 29 125 40 152 80 34 50
32 114 -5 150 -27 28 -28 28 -202 35 -96 3 -332 2 -525 -3 -356 -10 -799 0
-901 20 -31 6 -65 21 -88 41 l-38 31 4 66 c7 100 61 189 163 269 73 57 118 78
251 111 370 93 943 189 1434 240 107 11 209 23 225 25 92 13 180 -1 346 -57z
m1779 -587 c129 -5 478 -17 775 -26 297 -9 541 -17 541 -18 6 -6 36 -295 45
-430 13 -200 6 -851 -11 -971 -35 -256 -125 -505 -243 -680 -47 -69 -191 -222
-217 -230 -16 -5 -235 73 -490 175 -228 91 -1105 453 -1112 459 -4 3 9 42 28
86 101 232 201 545 249 782 45 225 75 519 75 751 l0 124 63 -6 c34 -4 168 -11
297 -16z m2080 -1381 c88 -39 141 -116 159 -228 28 -172 -76 -378 -228 -456
-141 -71 -274 -27 -343 113 -30 61 -33 74 -33 162 1 107 21 176 74 254 103
149 249 210 371 155z"/>
</g>
</svg>
