<?xml version="1.0" standalone="no"?>
<!DOCTYPE svg PUBLIC "-//W3C//DTD SVG 20010904//EN"
 "http://www.w3.org/TR/2001/REC-SVG-20010904/DTD/svg10.dtd">
<svg version="1.0" xmlns="http://www.w3.org/2000/svg"
 width="908.000000pt" height="1314.000000pt" viewBox="0 0 908.000000 1314.000000"
 preserveAspectRatio="xMidYMid meet">
<metadata>
Created by potrace 1.16, written by Peter Selinger 2001-2019
</metadata>
<g transform="translate(0.000000,1314.000000) scale(0.100000,-0.100000)"
fill="#000000" stroke="none">
<path d="M6595 13025 c-82 -15 -129 -32 -212 -73 -61 -31 -202 -138 -226 -171
-6 -10 -27 -34 -44 -55 l-33 -36 -144 39 c-697 191 -1437 249 -2106 165 -857
-107 -1589 -440 -2003 -909 -183 -207 -409 -606 -501 -885 -128 -385 -135
-753 -22 -1053 66 -177 162 -323 293 -448 141 -135 278 -210 443 -246 113 -24
402 -24 540 0 363 63 677 207 929 426 l74 64 -6 -114 c-6 -141 -25 -235 -84
-411 l-45 -137 -94 -50 c-351 -188 -671 -445 -957 -771 -60 -69 -218 -260
-350 -425 -132 -165 -251 -312 -264 -326 l-24 -26 -90 46 c-89 45 -92 46 -188
46 -88 0 -102 -3 -162 -32 -223 -110 -341 -447 -237 -675 l25 -54 -61 -46
c-172 -130 -377 -241 -620 -338 -235 -93 -256 -108 -256 -185 0 -153 138 -353
334 -485 158 -105 400 -197 583 -220 48 -7 112 -15 141 -18 l53 -7 -88 -76
c-218 -187 -365 -347 -418 -453 -47 -94 -30 -191 69 -384 l53 -102 -33 -25
c-114 -87 -240 -248 -285 -363 -45 -116 -26 -256 53 -391 45 -76 171 -200 241
-236 31 -17 57 -33 57 -37 0 -3 -28 -53 -61 -109 -104 -175 -160 -280 -191
-358 -39 -98 -39 -106 56 -547 200 -934 285 -1580 286 -2176 0 -153 1 -158 21
-158 11 0 140 20 287 45 1851 309 3471 540 4461 636 l233 23 -6 35 c-3 20 -9
137 -12 261 -17 579 71 1189 247 1720 l52 157 136 7 c700 35 1324 296 1633
684 54 68 148 218 148 237 0 6 -46 32 -103 59 -336 154 -534 384 -599 696 -27
129 -27 333 1 490 67 383 257 812 595 1343 154 243 209 340 311 550 456 939
619 1994 444 2872 -35 176 -83 349 -141 506 -53 145 -198 435 -282 564 -54 83
-63 103 -53 116 7 9 49 64 93 123 173 229 264 442 264 614 -1 181 -108 377
-323 593 -296 297 -700 453 -1291 499 -176 14 -456 11 -541 -5z m516 -365
c580 -58 1047 -276 1182 -550 30 -60 32 -71 32 -171 l0 -106 -52 -104 c-94
-189 -418 -649 -609 -864 -233 -263 -566 -583 -979 -940 -358 -310 -716 -646
-803 -754 -71 -89 -168 -288 -243 -501 -81 -230 -119 -324 -185 -446 -87 -163
-136 -199 -274 -199 -98 0 -145 19 -198 79 -82 94 -67 275 39 453 35 57 135
163 253 267 55 49 74 74 111 150 51 104 87 223 114 381 10 61 53 283 95 495
42 212 113 569 157 794 143 724 307 1322 431 1575 126 255 320 410 553 441 90
11 259 11 376 0z m-2136 -1020 c200 -39 618 -150 637 -168 3 -4 -5 -61 -18
-127 -14 -66 -61 -340 -105 -610 -78 -485 -140 -843 -182 -1065 l-22 -114 -50
4 c-28 3 -167 5 -310 4 -217 0 -282 -4 -395 -22 -169 -28 -379 -79 -534 -132
-66 -22 -121 -39 -122 -37 -2 2 5 30 15 62 54 172 112 505 131 755 18 224 2
551 -29 583 -4 4 -47 -7 -97 -23 -458 -157 -725 -116 -724 111 1 109 72 258
175 364 192 198 635 378 1045 424 52 6 109 13 125 15 82 11 355 -3 460 -24z
m2572 -1528 c183 -309 297 -669 360 -1132 28 -209 25 -684 -5 -875 -67 -417
-163 -742 -429 -1453 l-148 -393 -7 108 c-3 59 -11 224 -18 366 -31 747 -130
1250 -324 1662 -137 288 -337 535 -576 711 l-80 59 37 34 c130 119 889 828
988 924 138 133 116 134 202 -11z m-2479 -923 c53 -6 103 -14 111 -18 10 -6
-21 -36 -110 -108 -149 -121 -231 -205 -293 -301 -121 -187 -193 -445 -166
-601 44 -263 300 -461 595 -461 328 0 509 217 751 899 25 69 46 126 48 128 6
6 147 -164 194 -233 63 -95 136 -253 164 -354 21 -78 23 -105 22 -315 0 -177
-5 -267 -22 -390 -41 -307 -79 -467 -247 -1057 -124 -433 -194 -706 -221 -858
-21 -119 -14 -325 15 -450 88 -385 351 -735 731 -971 193 -120 493 -239 732
-291 60 -13 108 -26 108 -30 0 -16 -222 -161 -325 -212 -217 -108 -360 -141
-595 -140 -241 1 -411 41 -635 149 -312 150 -562 415 -757 800 -83 164 -124
260 -238 565 -102 272 -146 367 -226 485 -358 538 -1055 826 -1875 776 -242
-15 -411 -36 -869 -111 -453 -74 -543 -84 -700 -77 -143 7 -232 23 -348 66
-77 28 -222 112 -222 128 0 5 44 34 98 65 183 107 401 272 568 431 62 58 76
67 108 67 21 0 92 8 159 17 99 14 197 18 522 18 517 0 671 -15 1210 -121 619
-122 834 -197 1153 -403 148 -96 233 -133 372 -161 214 -45 426 -13 571 85
147 100 211 237 210 455 -1 456 -230 736 -617 757 -132 7 -228 -7 -441 -68
-394 -112 -594 -147 -898 -156 -439 -12 -1104 87 -1568 234 l-88 28 146 175
c469 560 799 884 1121 1099 401 267 1025 450 1602 469 29 1 96 -3 150 -9z
m-1391 -3470 c233 -75 410 -175 546 -311 l77 -77 -87 -138 c-49 -76 -261 -412
-473 -746 l-384 -607 -111 -36 c-305 -99 -516 -102 -637 -11 -89 68 -136 165
-218 452 -57 199 -89 265 -164 341 -150 149 -387 219 -721 212 l-160 -3 -34
80 c-19 43 -36 99 -39 122 l-5 44 129 128 c125 124 297 271 535 459 112 88
119 92 188 103 43 7 75 8 80 3 5 -5 22 -96 39 -203 17 -106 33 -196 36 -198 3
-3 292 89 643 205 351 116 644 211 650 212 7 0 57 -14 110 -31z m1332 -2205
c183 -202 330 -368 327 -371 -2 -3 -98 -16 -213 -29 -984 -113 -2633 -394
-3288 -561 -248 -63 -399 -54 -572 33 -86 43 -196 132 -219 176 -44 86 12 219
231 544 81 121 148 220 150 222 2 2 36 4 76 4 127 3 185 -50 232 -208 23 -79
52 -127 106 -180 138 -135 354 -201 575 -175 297 35 576 207 828 511 l79 95
662 151 c364 84 669 152 678 153 9 0 160 -158 348 -365z m801 -671 c0 -42 -33
-219 -66 -355 -34 -139 -37 -147 -62 -152 -15 -3 -88 -15 -162 -26 -534 -82
-2131 -342 -2485 -406 -503 -90 -589 -117 -685 -213 -95 -95 -141 -224 -266
-736 -37 -154 -68 -281 -69 -282 -1 -2 -142 -23 -315 -49 -255 -37 -315 -43
-322 -32 -14 20 -1 220 22 339 72 373 290 928 470 1197 60 90 63 93 143 132
137 66 369 134 713 209 915 200 2265 377 2972 389 101 2 112 0 112 -15z"/>
</g>
</svg>
