<?xml version="1.0" standalone="no"?>
<!DOCTYPE svg PUBLIC "-//W3C//DTD SVG 20010904//EN"
 "http://www.w3.org/TR/2001/REC-SVG-20010904/DTD/svg10.dtd">
<svg version="1.0" xmlns="http://www.w3.org/2000/svg"
 width="1033.000000pt" height="1209.000000pt" viewBox="0 0 1033.000000 1209.000000"
 preserveAspectRatio="xMidYMid meet">
<metadata>
Created by potrace 1.16, written by Peter Selinger 2001-2019
</metadata>
<g transform="translate(0.000000,1209.000000) scale(0.100000,-0.100000)"
fill="#000000" stroke="none">
<path d="M5061 11939 c-367 -39 -764 -208 -1014 -431 l-48 -43 360 -373 360
-373 -44 -54 c-73 -90 -145 -267 -145 -358 0 -19 -6 -28 -22 -32 -13 -2 -81
-16 -153 -30 -403 -79 -935 -252 -1450 -472 l-160 -69 -29 34 c-137 157 -404
188 -584 67 -67 -46 -135 -132 -164 -209 -18 -49 -23 -81 -23 -161 0 -110 15
-166 66 -243 16 -24 29 -45 29 -47 0 -3 -50 -85 -112 -182 -283 -449 -458
-761 -461 -822 -2 -31 2 -36 58 -67 138 -77 384 -139 598 -150 l127 -7 0 -212
c0 -439 -49 -822 -166 -1289 -94 -378 -121 -598 -111 -901 13 -395 84 -751
267 -1340 102 -329 137 -492 147 -691 16 -319 -79 -591 -285 -815 l-49 -53
-99 -12 c-268 -34 -500 -29 -784 18 -248 40 -385 -7 -452 -156 -22 -49 -23
-61 -23 -341 -1 -308 -3 -329 -61 -560 -71 -282 -254 -675 -440 -943 -24 -35
-44 -67 -44 -71 0 -12 222 -106 346 -147 384 -125 832 -184 1319 -171 526 14
1029 109 1200 227 l48 33 -6 81 c-11 151 -137 694 -266 1146 -27 96 -47 178
-43 182 17 17 601 226 751 268 l114 33 111 -28 c154 -38 524 -162 751 -252
265 -105 448 -196 509 -255 l49 -47 -6 -263 c-3 -145 -11 -407 -18 -583 -13
-352 -6 -490 26 -525 60 -66 352 -77 421 -16 21 18 26 34 34 121 5 55 10 309
10 565 0 478 9 660 36 712 20 39 102 90 238 148 271 116 798 270 925 270 107
0 565 -98 793 -170 l127 -40 -19 -63 c-206 -706 -309 -1089 -330 -1231 -11
-73 -10 -81 8 -105 68 -92 408 -197 810 -250 606 -81 1241 -35 1713 124 109
37 317 123 324 135 2 4 -65 221 -151 481 -237 722 -252 792 -263 1164 -8 269
-16 315 -68 383 -44 58 -94 77 -208 77 -55 0 -147 -8 -205 -18 -275 -45 -608
-44 -1140 4 -437 39 -633 100 -852 264 -75 57 -88 71 -102 113 -38 114 -80
396 -116 782 -11 117 -20 216 -20 218 0 2 -9 2 -21 -1 -18 -5 -17 0 12 51 276
485 389 725 446 946 23 86 27 122 27 246 1 171 -12 224 -104 445 -123 295
-145 400 -145 685 0 247 8 313 90 717 77 378 117 486 407 1113 181 391 233
510 278 636 37 106 90 400 90 502 0 152 -30 176 -424 351 -595 264 -1116 446
-1561 545 l-150 33 -6 90 c-4 50 -14 117 -24 149 -24 85 -88 202 -144 265
l-49 54 136 150 c74 83 229 258 345 389 l210 240 -74 70 c-85 81 -153 129
-265 185 -277 138 -653 197 -1013 160z m244 -1364 c118 -31 215 -126 249 -244
20 -69 20 -114 0 -181 -62 -210 -289 -312 -484 -218 -59 29 -130 101 -160 163
-35 71 -40 189 -11 266 37 98 128 181 234 214 57 18 101 18 172 0z m-624 -778
c42 -28 56 -73 41 -125 -25 -80 -259 -345 -373 -421 -71 -48 -149 -67 -461
-116 -308 -49 -418 -76 -829 -206 -85 -27 -169 -49 -186 -49 -71 0 -113 91
-116 252 -1 104 8 131 65 184 46 43 106 76 223 123 235 93 648 206 1080 295
464 96 500 101 556 63z m1333 -7 c340 -71 905 -222 1159 -309 327 -114 537
-242 590 -360 16 -37 18 -56 12 -127 -16 -192 -69 -284 -165 -284 -17 0 -128
38 -248 84 -307 118 -433 156 -716 216 -293 61 -476 110 -544 144 -93 47 -327
277 -400 394 -19 31 -22 48 -20 103 4 76 32 124 90 152 46 23 77 21 242 -13z
m-750 -724 c48 -20 72 -57 101 -154 63 -209 126 -342 220 -465 146 -190 160
-224 153 -371 -3 -80 -8 -101 -41 -169 -88 -187 -268 -289 -507 -289 -168 0
-288 43 -396 144 -112 106 -159 246 -130 388 21 99 58 161 158 262 141 142
184 220 243 433 45 166 64 200 125 224 34 13 36 13 74 -3z m-2816 -296 c94
-187 142 -315 142 -379 0 -31 -6 -44 -30 -64 -55 -47 -121 -62 -270 -62 -121
0 -140 2 -182 23 -26 13 -50 32 -53 43 -8 25 18 123 62 234 39 99 165 366 190
404 l16 24 18 -24 c11 -13 59 -103 107 -199z m5027 -444 c59 -43 -61 -353
-241 -623 -364 -545 -863 -918 -1416 -1058 -570 -145 -1373 -30 -1954 281
-358 191 -672 471 -827 737 -56 96 -90 198 -81 240 6 31 55 67 90 67 41 0 141
-61 328 -200 239 -178 362 -255 551 -346 357 -173 708 -254 1165 -270 663 -24
1237 205 1797 717 50 46 168 157 263 247 159 151 252 222 291 222 8 0 23 -6
34 -14z m-4560 -1476 c129 -315 176 -565 154 -810 -9 -109 -31 -223 -101 -545
-28 -128 -31 -157 -31 -330 -1 -161 3 -206 22 -295 58 -275 199 -594 408 -928
l65 -103 -22 -192 c-38 -329 -85 -586 -121 -662 -11 -23 -37 -41 -108 -77 -84
-41 -304 -121 -448 -162 l-52 -15 15 47 c24 78 82 311 103 417 56 281 55 482
-5 711 -13 51 -66 224 -118 386 -204 631 -211 664 -211 1033 1 291 7 361 66
670 47 250 128 560 231 890 62 199 55 188 84 124 14 -30 45 -101 69 -159z
m2215 -606 c69 -14 93 -144 94 -504 1 -227 -2 -273 -17 -322 -11 -37 -25 -62
-39 -69 -28 -15 -253 -6 -398 16 -583 88 -1122 260 -1272 405 -98 94 -51 156
182 238 357 125 1264 273 1450 236z m-1260 -1008 c74 -24 136 -48 138 -55 2
-6 -6 -71 -17 -146 -12 -74 -21 -138 -21 -143 0 -6 188 -12 438 -16 240 -3
510 -9 598 -12 l162 -6 11 -40 c24 -79 33 -215 22 -343 -6 -68 -16 -134 -22
-148 -30 -66 -156 -110 -389 -136 -183 -21 -230 -36 -230 -75 0 -61 202 -178
416 -241 214 -63 506 -32 739 79 104 49 149 84 164 126 13 38 2 46 -132 94
-109 38 -187 84 -217 126 -19 26 -20 44 -19 252 0 190 3 229 18 263 l18 40
274 -4 c151 -2 406 -6 568 -10 l294 -6 14 -40 c49 -137 21 -474 -53 -634 -36
-79 -138 -174 -447 -415 -478 -372 -565 -428 -770 -498 -77 -26 -107 -31 -187
-31 -197 -1 -349 68 -660 298 -95 71 -174 117 -327 194 -311 156 -444 255
-506 378 -49 95 -88 291 -107 532 -11 149 -14 534 -4 629 l7 60 46 -14 c25 -8
107 -34 181 -58z m1657 -2276 c20 -8 33 -19 35 -33 19 -127 -167 -712 -268
-844 -35 -46 -58 -43 -94 13 -107 170 -250 739 -200 799 25 30 130 60 280 79
56 7 212 -2 247 -14z m-4045 -669 c223 -33 272 -34 504 -16 227 18 330 17 376
-5 34 -16 58 -72 96 -225 80 -317 156 -803 169 -1070 l6 -130 -28 -33 c-84
-100 -262 -130 -826 -139 -481 -7 -720 10 -910 67 -185 55 -189 100 -39 486
106 270 167 450 241 707 69 241 83 280 117 325 43 58 84 63 294 33z m7779 -67
c64 -30 87 -73 149 -279 28 -93 89 -289 136 -434 110 -340 143 -477 151 -613
8 -141 -7 -184 -75 -220 -130 -70 -429 -108 -858 -108 -496 0 -860 41 -1023
116 -80 36 -101 59 -101 109 0 199 218 1048 332 1296 32 68 40 77 77 92 117
47 354 65 831 63 320 -1 337 -2 381 -22z"/>
<path d="M3500 1849 c-158 -32 -284 -166 -313 -333 -48 -280 203 -520 483
-462 132 28 223 100 284 226 29 60 31 73 31 170 0 93 -3 112 -27 162 -69 148
-184 228 -348 241 -36 3 -85 1 -110 -4z"/>
<path d="M6589 1726 c-77 -30 -118 -57 -171 -115 -79 -85 -102 -148 -103 -276
0 -92 3 -105 32 -167 148 -313 588 -313 736 0 29 62 32 75 32 167 -1 81 -5
111 -24 158 -32 81 -115 168 -199 209 -59 29 -76 33 -166 35 -67 2 -113 -2
-137 -11z"/>
</g>
</svg>
