<?xml version="1.0" standalone="no"?>
<!DOCTYPE svg PUBLIC "-//W3C//DTD SVG 20010904//EN"
 "http://www.w3.org/TR/2001/REC-SVG-20010904/DTD/svg10.dtd">
<svg version="1.0" xmlns="http://www.w3.org/2000/svg"
 width="976.000000pt" height="1343.000000pt" viewBox="0 0 976.000000 1343.000000"
 preserveAspectRatio="xMidYMid meet">
<metadata>
Created by potrace 1.16, written by Peter Selinger 2001-2019
</metadata>
<g transform="translate(0.000000,1343.000000) scale(0.100000,-0.100000)"
fill="#000000" stroke="none">
<path d="M5020 13266 c-131 -29 -291 -101 -442 -198 l-78 -50 -66 26 c-185 74
-408 103 -554 72 -192 -41 -333 -155 -428 -346 -63 -126 -105 -283 -122 -455
-16 -147 -8 -482 15 -645 35 -256 120 -614 204 -857 l28 -82 -39 -38 c-22 -21
-76 -81 -120 -133 -261 -310 -465 -729 -582 -1195 -83 -333 -104 -514 -116
-995 -17 -680 -54 -1044 -140 -1366 -102 -383 -218 -574 -470 -769 -88 -69
-173 -172 -225 -276 -54 -108 -68 -177 -63 -295 3 -82 8 -100 42 -169 27 -55
58 -97 101 -139 246 -241 523 -202 925 133 46 38 85 69 86 68 7 -7 -17 -811
-26 -852 -32 -154 -89 -261 -199 -377 -195 -205 -459 -351 -729 -402 -122 -23
-226 -34 -490 -51 -418 -27 -520 -57 -636 -186 -60 -67 -91 -122 -125 -226
-53 -158 -62 -342 -25 -501 28 -123 14 -212 -67 -417 -72 -184 -184 -400 -457
-880 -89 -157 -102 -267 -42 -372 50 -88 141 -140 260 -150 84 -7 126 -30 147
-81 23 -55 12 -158 -28 -273 -41 -114 -45 -210 -14 -274 104 -213 535 -331
1341 -365 458 -20 962 21 1440 115 272 54 647 152 869 228 53 18 76 22 95 15
56 -21 285 -81 435 -113 443 -95 1032 -169 1675 -211 320 -21 1107 -25 1315
-6 227 20 463 60 488 82 19 17 -299 276 -523 424 -992 660 -2436 1164 -3645
1271 -99 9 -201 19 -228 23 l-47 7 121 135 c161 178 388 403 469 464 102 77
132 87 218 75 429 -60 1798 -677 2582 -1164 394 -246 769 -526 1235 -925 357
-306 346 -299 543 -321 129 -14 424 -1 595 27 45 7 46 15 11 120 -82 250 -323
665 -598 1029 -345 457 -977 1121 -1362 1430 -200 162 -234 202 -234 284 0
116 83 280 360 706 172 264 208 325 237 394 73 179 -29 299 -347 409 -63 22
-160 52 -215 66 -55 15 -106 29 -113 31 -8 3 13 43 61 114 234 346 304 640
277 1168 -5 113 -9 207 -7 208 1 1 58 7 127 14 248 24 640 99 714 135 102 50
193 173 231 311 26 96 31 283 11 405 -47 278 -185 532 -370 679 -47 37 -138
91 -238 142 -204 102 -275 149 -361 236 -94 95 -149 176 -223 328 -74 155
-139 343 -189 555 -21 85 -53 219 -71 296 -197 824 -688 1450 -1349 1724 -55
23 -111 46 -124 51 -17 7 -22 15 -18 32 13 52 58 333 74 467 25 208 25 689 0
850 -66 418 -206 673 -428 775 -100 45 -240 57 -359 31z m128 -537 c12 -5 44
-29 71 -54 291 -272 280 -1480 -21 -2212 -63 -153 -133 -276 -234 -410 -143
-189 -129 -152 -128 -342 2 -208 59 -666 107 -854 12 -46 15 -49 72 -72 80
-33 131 -71 187 -140 70 -86 93 -157 93 -286 0 -101 -1 -108 -37 -180 -141
-285 -490 -351 -717 -134 -149 142 -182 346 -87 533 27 53 88 122 139 158 24
17 30 29 37 89 5 39 9 160 10 271 0 304 -27 592 -71 757 -20 73 -30 89 -123
206 -384 479 -631 1058 -711 1670 -19 138 -21 381 -5 472 28 164 85 264 173
305 123 57 293 11 514 -139 43 -29 83 -56 89 -60 7 -4 38 28 77 76 161 203
313 328 434 356 39 9 90 5 131 -10z m568 -2064 c107 -40 272 -131 366 -200
230 -170 382 -357 527 -650 128 -257 190 -487 281 -1040 58 -354 104 -563 159
-728 151 -448 300 -623 745 -875 89 -51 179 -109 199 -130 102 -105 103 -260
1 -320 -58 -34 -124 -26 -260 33 -60 26 -139 63 -176 82 -64 34 -67 37 -93
101 -63 159 -180 349 -327 534 -85 107 -373 399 -470 478 l-56 45 -21 100
c-30 135 -45 241 -81 560 -17 149 -38 315 -46 370 -86 579 -266 940 -582 1165
-89 63 -233 138 -310 161 -51 15 -52 -3 9 197 26 86 48 142 56 142 7 0 42 -11
79 -25z m-1865 -582 l77 -156 -64 -86 c-67 -89 -178 -302 -234 -451 -80 -211
-135 -442 -169 -720 -29 -234 -40 -439 -46 -890 -8 -535 -21 -676 -86 -927
-72 -282 -214 -570 -387 -788 -125 -158 -350 -368 -426 -400 -98 -41 -206 44
-206 162 1 67 30 124 103 201 159 167 260 310 376 535 136 260 236 557 266
785 10 78 15 205 15 410 0 668 48 1115 160 1517 80 283 224 592 360 772 55 73
166 193 178 193 4 0 41 -71 83 -157z m1852 -2770 c64 -9 117 -19 117 -22 0 -3
-26 -17 -58 -30 -116 -49 -499 -240 -562 -281 -106 -69 -160 -129 -160 -179 0
-33 68 -89 172 -141 167 -84 440 -162 713 -205 55 -9 102 -18 104 -21 4 -3 58
-757 61 -834 0 -11 -22 -20 -77 -33 -283 -64 -572 -260 -812 -550 -54 -66 -66
-75 -82 -66 -41 21 -320 311 -416 431 -245 306 -437 654 -542 981 -69 216 -91
400 -56 467 49 95 394 301 650 388 178 60 407 107 565 114 103 5 265 -3 383
-19z m1244 -895 c-26 -106 -90 -575 -103 -751 -5 -66 -11 -97 -18 -94 -6 3
-61 10 -121 17 -168 18 -151 8 -159 95 -12 132 -25 435 -26 581 l0 142 128 7
c70 4 154 11 187 15 110 14 118 13 112 -12z m-2951 -1542 c941 -373 1400 -564
1416 -588 63 -93 266 -494 394 -775 161 -356 269 -638 281 -736 7 -60 -10 -82
-86 -104 -103 -30 -355 -3 -421 46 -33 24 -57 85 -210 516 -207 583 -266 737
-317 817 -41 67 -104 92 -1118 449 -159 56 -328 118 -375 138 -78 33 -87 40
-107 81 -31 63 -77 390 -55 390 6 0 275 -105 598 -234z m2669 -51 c50 -10 93
-20 97 -24 11 -10 -28 -164 -57 -224 -53 -113 -129 -171 -271 -207 -191 -49
-455 4 -698 140 l-70 38 65 62 c130 125 278 196 489 234 57 10 359 -3 445 -19z
m376 -484 c107 -36 208 -95 306 -178 l52 -43 -96 -152 c-304 -483 -496 -913
-519 -1160 -7 -66 -8 -68 -38 -73 -48 -8 -322 -25 -414 -25 l-84 0 7 43 c32
203 136 557 229 782 64 153 195 400 286 538 75 114 204 287 214 287 1 0 27 -8
57 -19z m-4886 -1031 c304 -22 624 -73 746 -119 70 -27 126 -79 135 -126 8
-45 1 -81 -41 -209 -23 -67 -37 -133 -41 -187 -15 -204 62 -724 170 -1147 18
-73 31 -134 27 -136 -24 -14 -277 -89 -371 -110 -257 -57 -589 -76 -825 -47
-312 39 -688 157 -935 293 -144 80 -210 121 -210 130 0 6 76 159 169 342 183
358 249 503 286 633 39 133 41 193 10 293 -36 119 -42 189 -21 244 32 83 111
129 254 146 100 11 487 11 647 0z m5172 -896 c184 -88 219 -339 65 -475 -53
-47 -117 -69 -196 -69 -201 0 -338 217 -254 401 71 155 233 215 385 143z m980
-830 c100 -48 158 -143 157 -259 -2 -259 -313 -381 -494 -194 -151 156 -71
424 145 480 48 13 136 1 192 -27z"/>
</g>
</svg>
