<?xml version="1.0" standalone="no"?>
<!DOCTYPE svg PUBLIC "-//W3C//DTD SVG 20010904//EN"
 "http://www.w3.org/TR/2001/REC-SVG-20010904/DTD/svg10.dtd">
<svg version="1.0" xmlns="http://www.w3.org/2000/svg"
 width="1095.000000pt" height="1400.000000pt" viewBox="0 0 1095.000000 1400.000000"
 preserveAspectRatio="xMidYMid meet">
<metadata>
Created by potrace 1.16, written by Peter Selinger 2001-2019
</metadata>
<g transform="translate(0.000000,1400.000000) scale(0.100000,-0.100000)"
fill="#000000" stroke="none">
<path d="M5140 13884 c-25 -2 -106 -8 -180 -14 -930 -75 -1966 -454 -2378
-870 -81 -81 -142 -189 -142 -249 0 -46 40 -163 165 -486 239 -616 364 -1073
419 -1530 22 -179 36 -475 29 -599 l-6 -103 -53 -26 c-161 -79 -373 -232 -511
-369 -180 -177 -273 -331 -319 -524 -22 -93 -14 -288 15 -399 67 -251 224
-441 469 -564 64 -32 257 -101 284 -101 10 0 25 -80 63 -347 27 -192 49 -356
49 -367 1 -16 -16 -22 -104 -42 -212 -48 -286 -79 -361 -151 -112 -107 -217
-281 -474 -783 -223 -437 -292 -544 -551 -843 -130 -149 -159 -200 -150 -252
12 -62 158 -202 413 -397 l112 -86 -106 -37 c-475 -164 -1075 -392 -1252 -476
-246 -117 -434 -271 -480 -393 -40 -108 -24 -175 64 -262 68 -67 116 -93 443
-240 321 -145 464 -239 918 -610 421 -343 698 -614 981 -959 151 -183 177
-205 248 -205 120 0 192 86 459 545 71 121 191 315 267 431 195 296 239 399
239 564 0 113 -29 200 -150 450 -215 445 -333 769 -391 1075 -36 187 9 596 85
778 14 35 17 37 37 26 35 -18 105 -95 124 -135 17 -37 20 -65 45 -434 29 -437
95 -677 251 -915 64 -99 179 -214 241 -243 56 -26 126 -28 173 -6 48 23 119
118 423 575 423 634 535 772 795 979 183 145 298 203 353 178 86 -39 38 -125
-522 -943 -403 -589 -747 -1139 -1304 -2085 -771 -1312 -1140 -2027 -1140
-2211 0 -58 34 -89 98 -89 57 0 241 44 292 70 237 120 1721 538 3460 975 677
170 1081 266 1306 310 237 47 331 91 374 175 26 51 26 133 0 202 -31 82 -112
181 -445 545 -789 859 -1065 1167 -1307 1456 -157 188 -281 350 -322 420 -49
84 -136 340 -136 400 0 35 2 38 23 31 54 -17 189 -123 397 -314 152 -139 199
-176 244 -195 48 -20 72 -12 86 30 13 40 10 64 -35 315 -61 333 -164 921 -201
1145 -40 245 -42 328 -7 406 56 126 231 189 325 117 52 -39 83 -109 137 -304
27 -98 93 -332 146 -519 53 -187 112 -404 131 -481 50 -196 70 -224 164 -224
56 0 141 29 443 151 993 402 1093 439 1194 439 102 0 203 -100 203 -200 0 -37
-6 -48 -53 -94 -68 -66 -330 -200 -812 -416 -857 -384 -1030 -466 -1120 -534
-157 -117 -140 -235 68 -466 142 -158 975 -1006 1089 -1108 152 -137 218 -159
437 -141 190 15 325 37 431 71 329 105 739 363 1129 711 257 229 372 407 372
577 1 129 -36 179 -213 296 -163 106 -439 313 -571 425 -54 46 -143 122 -199
169 -55 47 -110 101 -120 120 -26 47 -19 103 26 205 19 44 35 94 36 110 6 84
10 78 -194 279 -262 258 -402 439 -515 662 -96 190 -130 307 -160 549 -38 298
-87 487 -167 640 -26 50 -59 112 -72 138 -33 64 -38 127 -18 228 22 110 78
277 118 352 41 76 108 150 167 185 42 25 55 27 151 27 69 0 128 -6 172 -18
118 -31 170 -1 230 133 100 221 106 484 14 709 -60 149 -207 321 -382 447
-126 91 -356 202 -554 268 l-165 55 -8 53 c-4 29 -5 145 -2 258 16 549 94 992
272 1535 79 242 135 392 336 905 85 217 168 431 185 475 l31 80 -292 145
c-1039 517 -1659 693 -2632 750 -180 10 -1090 21 -1175 14z m3428 -1138 c28
-9 52 -22 52 -29 0 -19 -57 -183 -163 -467 -180 -485 -242 -691 -383 -1275
-95 -395 -132 -523 -160 -563 -12 -17 -25 -22 -63 -22 -39 0 -69 11 -152 54
-57 30 -128 61 -158 70 -74 22 -198 20 -315 -4 -116 -25 -153 -18 -208 36 -49
47 -68 111 -68 228 0 261 123 679 350 1191 113 257 195 381 338 518 151 142
329 234 535 273 96 18 323 12 395 -10z m-3846 -1858 c45 -20 73 -71 87 -159
18 -110 34 -434 35 -684 1 -261 -10 -332 -58 -406 -52 -79 -110 -89 -545 -96
-385 -6 -437 -2 -491 44 -78 65 -89 133 -100 598 -10 402 -4 560 25 614 30 60
104 76 440 96 300 18 557 15 607 -7z m2541 -879 c217 -19 418 -87 486 -164 38
-43 39 -58 5 -84 -37 -29 -101 -45 -369 -91 -710 -121 -1126 -262 -1725 -583
-715 -384 -1264 -620 -1589 -681 -229 -44 -398 8 -314 96 38 39 97 72 288 158
197 89 405 193 680 340 607 324 1467 754 1751 875 206 88 377 126 649 143 11
1 73 -3 138 -9z m197 -1105 c103 -19 243 -69 475 -169 253 -108 348 -159 417
-223 119 -111 134 -182 94 -462 -30 -204 -66 -330 -129 -442 -97 -173 -242
-263 -312 -193 -24 23 -25 29 -25 162 0 307 -74 528 -203 607 -41 25 -59 30
-115 30 -150 1 -204 -85 -238 -376 -21 -189 -45 -284 -97 -393 -83 -170 -208
-312 -376 -422 -88 -58 -399 -223 -421 -223 -7 0 -10 7 -6 17 43 112 391 1261
410 1356 9 42 21 133 26 204 27 335 34 376 73 433 33 49 69 71 144 91 85 22
177 23 283 3z m-879 -141 c19 -123 17 -391 -5 -533 -64 -424 -226 -885 -512
-1460 -290 -582 -455 -818 -695 -995 -165 -121 -344 -182 -649 -219 -572 -70
-935 -17 -1135 165 -97 89 -147 225 -129 350 l9 64 115 77 c63 43 149 92 190
109 70 30 80 31 170 27 81 -4 119 -13 261 -61 92 -30 204 -61 249 -68 246 -36
443 43 656 263 69 70 184 213 184 227 0 4 -57 7 -127 7 -140 0 -212 14 -311
60 -44 21 -89 60 -202 173 -80 81 -171 164 -203 185 -68 44 -184 99 -244 115
-40 11 -42 14 -50 59 -4 26 -8 108 -8 182 1 144 17 229 85 451 l30 96 64 11
c89 17 105 15 162 -13 35 -17 84 -61 157 -139 125 -133 224 -205 330 -238 102
-32 285 -32 407 1 331 88 543 304 597 606 44 252 63 301 153 395 54 57 59 60
230 124 96 36 182 66 191 66 14 0 20 -18 30 -87z m-2781 -781 c0 -17 -121
-733 -127 -749 -6 -16 -46 -42 -138 -87 -71 -36 -131 -63 -134 -60 -10 10 -41
626 -41 818 l0 81 220 0 c121 0 220 -1 220 -3z"/>
<path d="M4160 10631 c-94 -14 -144 -63 -175 -175 -23 -79 -17 -432 9 -512 28
-90 77 -119 201 -119 76 1 98 5 140 25 98 49 116 110 116 388 -1 279 -17 357
-79 380 -36 14 -156 21 -212 13z"/>
</g>
</svg>
