<?xml version="1.0" standalone="no"?>
<!DOCTYPE svg PUBLIC "-//W3C//DTD SVG 20010904//EN"
 "http://www.w3.org/TR/2001/REC-SVG-20010904/DTD/svg10.dtd">
<svg version="1.0" xmlns="http://www.w3.org/2000/svg"
 width="749.000000pt" height="1204.000000pt" viewBox="0 0 749.000000 1204.000000"
 preserveAspectRatio="xMidYMid meet">
<metadata>
Created by potrace 1.16, written by Peter Selinger 2001-2019
</metadata>
<g transform="translate(0.000000,1204.000000) scale(0.100000,-0.100000)"
fill="#000000" stroke="none">
<path d="M5797 11904 c-114 -25 -232 -73 -411 -166 -608 -316 -821 -384 -1232
-395 -365 -10 -559 31 -1078 226 -402 152 -504 179 -706 188 -199 8 -364 -27
-474 -102 -106 -71 -155 -169 -182 -363 l-17 -117 -78 3 c-162 7 -288 -45
-411 -169 -130 -131 -199 -306 -197 -501 0 -51 6 -118 12 -147 l12 -55 -154
-150 c-245 -241 -761 -801 -761 -827 0 -14 89 -120 169 -203 371 -383 850
-603 1375 -632 l123 -7 7 -136 c19 -404 19 -617 1 -818 -15 -165 -16 -215 -7
-287 24 -182 117 -301 252 -322 l43 -7 -6 -146 c-10 -264 -41 -330 -246 -525
-269 -256 -455 -450 -484 -504 -66 -122 -56 -228 39 -419 l66 -132 -67 -73
c-209 -228 -344 -554 -333 -802 3 -80 8 -100 40 -166 52 -106 136 -188 251
-243 l87 -42 -6 -65 c-13 -136 -6 -311 15 -393 47 -181 169 -330 341 -417 118
-59 260 -86 518 -96 95 -4 175 -10 177 -15 3 -4 -112 -511 -254 -1126 -363
-1565 -371 -1597 -366 -1602 5 -4 109 13 805 135 2149 376 3559 668 3800 787
l65 32 -2 105 c-1 58 -15 261 -32 450 -46 511 -59 690 -72 950 -12 244 -12
247 31 680 32 321 -21 480 -159 480 l-31 0 44 88 c24 48 71 128 104 177 56 84
106 147 372 475 254 312 404 600 469 904 65 297 37 646 -75 970 -25 72 -46
140 -46 151 0 11 9 101 21 200 37 327 44 494 38 949 -5 435 -11 537 -48 900
-114 1125 -425 2390 -740 3006 -88 172 -158 266 -222 299 -43 22 -63 25 -180
28 -92 2 -153 -2 -200 -13z m-4031 -1038 c194 -90 223 -282 75 -492 -46 -66
-97 -119 -150 -156 l-24 -17 12 -153 c6 -84 29 -333 51 -553 22 -220 42 -437
46 -482 l7 -83 -99 0 c-395 1 -776 149 -1073 417 l-53 48 329 340 c181 187
369 377 417 422 l88 81 -17 49 c-25 72 -31 214 -11 290 61 242 235 367 402
289z m4582 -186 c23 -69 75 -237 117 -375 l76 -250 -29 -26 c-137 -122 -516
-252 -947 -323 -367 -61 -640 -80 -1047 -73 -332 5 -500 20 -718 63 -69 13
-128 24 -133 24 -4 0 -15 -19 -24 -42 -9 -24 -51 -113 -94 -198 -126 -254
-256 -438 -426 -601 -255 -244 -529 -365 -899 -394 l-81 -7 -6 174 c-9 219 -9
376 -1 510 l7 105 66 33 c202 99 418 275 577 470 148 181 297 449 379 680 21
58 41 109 45 113 4 5 63 -5 131 -22 482 -118 1052 -157 1559 -105 467 47 960
178 1330 353 35 17 67 27 71 23 4 -4 25 -63 47 -132z m-1942 -3423 c21 -21
-258 -865 -407 -1227 -131 -320 -407 -844 -620 -1177 l-77 -122 46 -43 c104
-97 243 -170 372 -195 70 -14 98 -15 184 -5 145 16 246 47 452 138 6 3 39 -34
75 -82 81 -110 183 -203 272 -250 61 -32 82 -37 156 -42 100 -5 213 19 317 67
l62 29 334 -231 334 -232 -32 -78 c-17 -43 -34 -80 -36 -82 -3 -3 -128 -23
-279 -45 -779 -112 -1375 -213 -2038 -346 -178 -35 -325 -63 -327 -62 -1 2 15
75 37 163 79 326 115 535 93 535 -3 0 -47 -35 -98 -78 -374 -321 -671 -514
-867 -563 -74 -19 -102 -21 -239 -16 -227 8 -313 41 -366 138 -36 65 -14 354
29 381 7 4 35 8 62 8 75 0 297 35 410 65 188 49 368 133 495 230 56 43 190
179 190 193 0 4 -22 15 -50 25 -67 24 -130 74 -160 127 -24 43 -25 51 -21 185
9 358 10 343 -28 419 -90 184 -299 296 -581 312 -93 6 -264 -7 -303 -22 -23
-8 -62 91 -61 156 1 93 36 145 269 390 70 74 161 176 202 225 42 50 79 93 82
98 4 4 35 -28 68 -70 86 -112 150 -171 190 -179 110 -21 733 144 806 214 34
32 79 126 75 154 -2 16 -109 73 -493 267 l-490 246 -5 47 c-5 38 -3 49 10 53
72 21 346 94 489 130 322 80 635 132 926 154 141 11 530 9 541 -2z m678 -98
c541 -136 1099 -436 1614 -868 137 -115 138 -116 184 -291 74 -285 41 -532
-117 -857 -99 -206 -203 -357 -425 -618 -43 -49 -112 -135 -155 -190 -43 -55
-83 -99 -89 -97 -6 2 -131 76 -277 165 l-266 162 94 99 c278 292 403 557 444
941 27 258 -29 493 -146 610 -53 54 -98 77 -212 111 -192 58 -524 28 -636 -58
-13 -10 -22 -41 -32 -125 -37 -280 -130 -502 -315 -755 -87 -118 -235 -271
-335 -346 -90 -68 -248 -146 -350 -173 -61 -17 -110 -22 -207 -22 -70 0 -130
2 -134 5 -3 4 23 53 59 110 194 310 428 791 630 1298 140 351 209 550 332 956
4 14 164 -13 339 -57z m548 -1286 c83 -39 141 -97 169 -171 29 -77 23 -214
-14 -319 -119 -340 -466 -674 -767 -739 -100 -22 -178 -8 -227 41 -41 41 -49
75 -36 151 16 91 81 219 207 409 126 188 204 336 262 495 44 124 47 128 99
152 33 15 59 18 140 16 87 -3 108 -7 167 -35z m-3397 -847 c22 -9 50 -27 62
-38 22 -21 23 -27 23 -222 0 -147 5 -220 16 -271 26 -114 30 -105 -71 -144
-49 -18 -142 -47 -205 -64 -108 -29 -126 -31 -300 -31 -207 -1 -238 5 -289 58
-46 47 -50 96 -17 209 75 255 242 445 450 514 60 19 278 12 331 -11z m2606
-2279 c50 -33 94 -98 120 -174 32 -91 32 -250 1 -368 -44 -163 -139 -318 -236
-384 -55 -38 -67 -41 -414 -116 -681 -146 -1419 -289 -1652 -319 -141 -19
-144 -17 -135 84 12 121 46 314 85 475 64 266 118 406 163 425 12 5 166 38
342 74 176 36 453 93 615 126 285 58 934 184 995 193 64 9 83 6 116 -16z"/>
<path d="M4092 2508 c-74 -28 -153 -108 -182 -185 -52 -134 -19 -284 81 -378
73 -68 126 -88 234 -89 79 -1 97 2 147 27 74 36 150 119 175 189 28 82 24 188
-10 263 -36 76 -110 147 -183 175 -74 27 -189 27 -262 -2z"/>
</g>
</svg>
