<?xml version="1.0" standalone="no"?>
<!DOCTYPE svg PUBLIC "-//W3C//DTD SVG 20010904//EN"
 "http://www.w3.org/TR/2001/REC-SVG-20010904/DTD/svg10.dtd">
<svg version="1.0" xmlns="http://www.w3.org/2000/svg"
 width="662.000000pt" height="1204.000000pt" viewBox="0 0 662.000000 1204.000000"
 preserveAspectRatio="xMidYMid meet">
<metadata>
Created by potrace 1.16, written by Peter Selinger 2001-2019
</metadata>
<g transform="translate(0.000000,1204.000000) scale(0.100000,-0.100000)"
fill="#000000" stroke="none">
<path d="M1398 12000 c-332 -60 -568 -341 -568 -675 0 -214 91 -405 255 -538
69 -56 175 -109 255 -128 30 -7 56 -14 58 -15 5 -3 21 -176 42 -464 11 -157
40 -544 65 -860 121 -1556 161 -2243 153 -2660 -3 -170 -8 -243 -18 -263 -33
-68 -142 -97 -370 -97 -85 0 -207 5 -270 10 -439 36 -477 34 -553 -24 -59 -45
-89 -103 -95 -186 -9 -129 57 -238 165 -274 64 -21 598 -64 905 -73 219 -6
227 -7 232 -27 3 -12 10 -82 16 -156 10 -114 9 -146 -3 -206 -37 -174 -143
-349 -387 -639 -158 -188 -202 -260 -220 -354 -12 -62 -5 -110 21 -163 23 -45
59 -71 139 -100 35 -13 68 -30 73 -39 7 -12 7 -38 -3 -86 -8 -44 -11 -113 -8
-184 5 -133 24 -185 107 -293 48 -64 71 -115 71 -164 0 -13 -13 -81 -29 -150
-37 -162 -45 -242 -32 -322 21 -128 101 -242 234 -332 59 -40 252 -138 273
-138 12 0 55 -186 79 -340 66 -431 72 -987 16 -1640 -10 -113 -17 -206 -16
-207 3 -6 428 71 730 132 943 188 2208 495 2835 686 159 49 370 126 370 135 0
5 -48 329 -114 769 -91 604 -108 761 -111 995 -2 199 -3 219 -25 267 -25 58
-84 119 -126 129 l-27 7 6 141 c12 331 117 551 463 971 146 178 231 382 275
660 19 115 16 417 -5 540 -42 250 -118 442 -220 552 l-57 62 -3 468 c-2 331
-8 522 -20 653 -58 659 -150 1236 -312 1970 -72 321 -340 1400 -405 1625 -72
248 -141 404 -212 482 -59 64 -104 83 -203 83 -231 0 -2399 -162 -2596 -195
-25 -4 -27 -2 -33 48 -22 169 -83 296 -200 413 -86 87 -192 149 -305 179 -68
19 -229 27 -292 15z m3467 -790 c63 -32 149 -253 150 -385 0 -75 -1 -80 -25
-92 -49 -23 -125 -31 -655 -68 -230 -16 -386 -37 -429 -56 -18 -8 -28 -23 -32
-47 -22 -114 80 -2059 156 -2992 42 -510 60 -647 87 -667 24 -18 224 -17 414
2 85 9 287 31 449 50 371 43 561 59 595 51 46 -12 59 -61 60 -226 0 -228 -2
-230 -260 -275 -395 -69 -1955 -247 -2685 -307 -85 -6 -251 -12 -368 -13 -201
0 -214 1 -228 20 -25 34 -38 97 -38 190 0 104 20 178 62 223 48 51 191 74 727
117 503 40 669 65 713 106 30 28 36 115 29 459 -21 953 -177 2967 -250 3221
l-13 44 -69 3 c-81 3 -178 -10 -555 -79 -587 -108 -664 -120 -770 -122 l-105
-2 -28 55 c-49 98 -73 307 -47 402 14 47 36 63 136 93 357 110 1298 241 2109
295 88 6 183 12 210 14 28 2 181 3 340 2 236 -1 296 -4 320 -16z m-2815 -2041
c120 -38 199 -87 296 -184 79 -78 98 -103 137 -185 69 -143 81 -200 82 -370 0
-174 -15 -240 -85 -385 -81 -166 -190 -278 -345 -351 -84 -40 -186 -68 -195
-54 -6 10 -37 288 -66 605 -32 346 -29 798 6 926 l10 36 48 -8 c26 -5 76 -18
112 -30z m1490 -3338 c-10 -27 -156 -404 -324 -838 -523 -1353 -811 -2085
-861 -2183 -16 -31 -40 -60 -66 -77 -97 -64 -341 -27 -454 70 -49 40 -87 120
-92 192 -5 53 -1 71 23 126 42 93 40 180 -4 266 -57 111 -40 163 99 304 98 99
165 198 212 316 34 83 40 118 28 142 -14 25 -34 28 -242 41 -358 20 -424 69
-334 246 40 80 125 190 254 326 l93 98 53 -62 c30 -34 73 -77 97 -96 39 -31
47 -33 88 -28 100 14 448 146 665 252 213 105 258 149 203 202 -62 57 -377
164 -820 277 l-147 38 -10 47 c-19 87 10 186 76 267 17 20 43 23 708 71 380
27 709 50 732 51 l43 1 -20 -49z m1095 -850 c50 -23 125 -103 159 -169 69
-136 47 -321 -65 -545 -127 -253 -247 -378 -401 -418 -82 -22 -113 -41 -145
-89 -44 -64 -21 -165 47 -204 22 -13 58 -21 109 -24 102 -6 182 22 326 115
172 110 217 119 318 65 57 -31 97 -74 134 -145 23 -44 27 -65 28 -138 0 -79
-3 -92 -35 -155 -42 -82 -36 -78 -284 -163 -403 -138 -675 -202 -1291 -305
-358 -60 -537 -87 -541 -83 -4 4 571 1505 579 1513 2 2 61 11 132 19 249 29
393 82 491 180 44 43 67 80 110 173 106 225 125 261 163 310 35 43 89 82 116
82 6 0 28 -9 50 -19z m311 -2336 c40 -28 67 -111 68 -210 2 -156 -4 -161 -251
-245 -531 -181 -1690 -465 -1985 -487 l-88 -6 -22 49 c-33 70 -32 223 1 307
39 99 66 118 237 165 430 120 1866 440 1979 441 22 1 50 -6 61 -14z m114 -805
c37 -40 55 -108 55 -210 0 -121 -11 -141 -98 -180 -386 -172 -2066 -630 -2270
-618 -49 3 -53 5 -71 42 -56 114 -9 350 82 415 38 27 169 69 487 156 520 142
1238 317 1720 418 48 11 68 6 95 -23z"/>
</g>
</svg>
