<?xml version="1.0" standalone="no"?>
<!DOCTYPE svg PUBLIC "-//W3C//DTD SVG 20010904//EN"
 "http://www.w3.org/TR/2001/REC-SVG-20010904/DTD/svg10.dtd">
<svg version="1.0" xmlns="http://www.w3.org/2000/svg"
 width="826.000000pt" height="1226.000000pt" viewBox="0 0 826.000000 1226.000000"
 preserveAspectRatio="xMidYMid meet">
<metadata>
Created by potrace 1.16, written by Peter Selinger 2001-2019
</metadata>
<g transform="translate(0.000000,1226.000000) scale(0.100000,-0.100000)"
fill="#000000" stroke="none">
<path d="M4305 12199 c-856 -66 -1674 -507 -2190 -1180 -97 -126 -172 -246
-290 -465 l-98 -182 -31 9 c-108 31 -246 -31 -294 -134 -30 -64 -35 -123 -17
-187 9 -30 17 -61 18 -68 1 -8 -54 -50 -123 -94 -69 -45 -160 -108 -204 -140
-77 -59 -214 -150 -449 -298 -215 -137 -359 -257 -445 -374 -32 -43 -37 -59
-40 -115 -4 -78 21 -136 78 -182 69 -56 260 -79 647 -79 303 0 873 -16 966
-26 l59 -7 -55 -56 c-97 -100 -318 -354 -369 -426 -99 -140 -143 -251 -141
-365 2 -81 24 -197 54 -272 l18 -47 -61 -98 c-105 -166 -134 -282 -105 -419
20 -94 54 -159 122 -232 65 -71 142 -124 228 -159 34 -14 63 -26 65 -28 2 -1
-17 -63 -42 -136 -56 -167 -69 -242 -64 -373 3 -98 6 -108 46 -190 63 -126
149 -210 285 -276 93 -45 239 -90 295 -90 16 0 22 -6 22 -21 0 -50 -141 -1711
-151 -1779 -15 -101 -53 -228 -90 -303 -38 -76 -126 -225 -148 -251 -28 -32
-62 -39 -238 -46 l-173 -7 -74 -37 c-155 -76 -236 -228 -223 -422 5 -89 29
-155 87 -239 44 -63 70 -124 70 -164 0 -32 -84 -182 -408 -731 -28 -48 -61
-91 -74 -98 -14 -7 -90 -12 -198 -14 -166 -3 -178 -4 -232 -30 -231 -108 -324
-439 -197 -705 64 -135 210 -243 327 -243 97 0 140 34 217 175 56 102 476 827
1048 1810 275 473 520 899 544 947 90 181 143 383 168 638 15 162 67 916 85
1250 16 292 12 276 67 289 62 16 181 76 242 122 60 46 215 95 628 199 842 214
1779 382 2211 397 l172 6 0 -44 c0 -24 14 -102 30 -173 30 -131 37 -191 22
-200 -5 -3 -82 -14 -173 -26 -720 -92 -1650 -257 -2144 -381 -260 -66 -459
-144 -490 -193 -13 -21 -53 -300 -77 -536 -18 -183 -17 -574 2 -625 14 -38 17
-40 62 -43 57 -4 158 20 528 123 325 91 570 151 810 199 193 38 838 140 1340
211 179 25 333 47 342 49 34 8 93 -223 78 -305 -4 -22 -12 -44 -16 -48 -5 -5
-169 -40 -364 -80 -1843 -374 -2764 -574 -2912 -632 -21 -9 -67 -78 -211 -323
-589 -996 -1707 -2918 -1766 -3034 -13 -24 -21 -45 -19 -47 2 -2 88 21 191 51
427 122 821 192 1265 225 228 16 833 6 1247 -21 425 -28 912 -31 1160 -6 182
18 454 62 600 96 853 201 1732 601 2312 1051 144 112 292 261 323 323 l23 50
-66 130 c-36 72 -240 444 -453 826 -531 956 -770 1393 -874 1605 l-89 180 -70
290 c-154 639 -204 950 -204 1260 -1 379 73 510 320 572 105 26 392 23 598 -6
245 -36 370 -19 478 63 96 73 125 160 108 319 -14 125 -39 218 -106 394 -142
369 -169 462 -181 603 -7 86 -2 129 66 490 85 457 110 680 110 990 0 532 -110
921 -371 1314 -308 465 -763 814 -1343 1030 -258 97 -672 186 -999 216 -164
15 -498 20 -632 9z m640 -279 c331 -34 705 -123 975 -230 432 -172 847 -453
1055 -713 233 -291 274 -701 88 -879 -81 -78 -235 -125 -372 -115 -156 12
-261 61 -564 259 -431 281 -642 358 -982 358 -228 0 -510 -50 -755 -135 -58
-20 -177 -71 -265 -115 -326 -160 -571 -351 -1060 -823 -160 -155 -160 -155
-133 -166 15 -6 137 -31 270 -56 534 -101 987 -219 1383 -362 314 -113 495
-219 795 -465 404 -331 558 -425 868 -528 272 -90 612 -147 971 -163 l54 -2
64 -160 c90 -227 131 -356 150 -463 15 -90 15 -95 -3 -113 -37 -36 -96 -38
-299 -8 -239 34 -438 55 -730 74 -126 9 -238 18 -250 20 -34 8 -714 73 -1035
100 -168 14 -336 32 -375 40 -185 41 -406 137 -565 246 -214 147 -354 282
-627 609 -234 280 -319 361 -504 475 -180 112 -441 214 -689 268 -322 72 -646
97 -1260 98 -250 0 -475 4 -499 7 l-44 7 109 114 c176 184 446 399 729 580 88
57 187 124 220 151 34 26 71 53 84 59 36 20 101 82 116 112 8 15 19 47 25 72
10 46 197 406 293 567 196 325 524 652 870 866 400 248 794 377 1302 428 68 7
484 -3 590 -14z m-1106 -1956 c166 -49 232 -248 128 -386 -97 -128 -279 -134
-385 -13 -100 113 -77 286 48 369 70 46 127 55 209 30z m1308 -383 c90 -45
152 -161 138 -256 -18 -116 -115 -206 -230 -213 -81 -5 -127 10 -183 62 -88
80 -110 198 -55 298 67 123 210 171 330 109z m1089 -609 c105 -54 161 -170
135 -279 -45 -183 -265 -255 -406 -131 -59 52 -85 109 -85 184 0 186 195 309
356 226z m-3970 -563 c48 -94 93 -173 99 -175 5 -2 161 16 345 40 l335 44 53
-41 c80 -61 196 -190 296 -328 210 -290 295 -397 383 -484 51 -51 93 -95 93
-99 0 -10 -251 -357 -492 -678 -450 -599 -603 -771 -758 -852 -120 -62 -156
-69 -314 -63 -78 3 -164 12 -193 20 -125 36 -234 110 -274 189 -51 100 -43
196 34 399 l52 138 195 5 c209 4 294 18 428 71 157 62 284 177 351 318 58 119
74 216 69 398 -2 82 -6 151 -9 154 -3 3 -53 -42 -110 -99 -88 -87 -118 -110
-189 -144 -190 -92 -339 -74 -459 53 -58 62 -103 148 -127 248 l-17 67 -121 0
c-67 0 -158 3 -204 7 l-82 6 -21 66 c-11 36 -24 93 -29 126 -8 55 -6 65 19
120 16 33 55 97 88 143 61 85 448 522 462 522 4 0 48 -77 97 -171z m2270
-1667 c122 -141 220 -258 219 -260 -4 -4 -928 -182 -931 -179 -3 4 480 697
486 696 3 0 105 -116 226 -257z m535 -3108 c189 -56 339 -215 378 -402 65
-313 -185 -622 -504 -623 -98 0 -159 14 -245 56 -216 108 -330 352 -272 584
48 186 168 315 352 378 80 28 210 31 291 7z m728 -518 c92 -79 173 -175 202
-240 12 -29 26 -95 35 -174 8 -70 21 -188 29 -262 25 -220 57 -351 94 -384 10
-9 55 -30 101 -47 179 -65 264 -123 301 -204 53 -115 -6 -343 -112 -439 -73
-66 -157 -81 -284 -52 -249 58 -879 42 -1355 -35 -272 -43 -526 -108 -972
-248 -341 -107 -410 -124 -493 -124 -125 -1 -218 63 -278 191 -30 62 -32 75
-32 173 0 104 1 108 40 185 50 99 106 141 228 174 96 26 129 43 149 79 9 14
32 107 53 206 103 501 242 822 454 1047 l57 61 36 -64 c64 -113 139 -212 234
-306 l92 -91 -83 -164 c-176 -345 -275 -600 -275 -708 0 -92 7 -95 255 -94
345 1 892 76 1175 161 96 28 135 46 168 76 60 55 4 334 -137 680 l-40 98 52
62 c121 143 172 242 188 368 6 46 7 104 4 128 -6 43 -6 43 15 28 12 -8 56 -45
99 -81z"/>
<path d="M2672 10237 c-46 -14 -117 -80 -141 -130 -31 -65 -29 -167 5 -235 80
-161 304 -190 424 -55 120 137 72 349 -95 419 -39 16 -144 17 -193 1z"/>
</g>
</svg>
