<?xml version="1.0" standalone="no"?>
<!DOCTYPE svg PUBLIC "-//W3C//DTD SVG 20010904//EN"
 "http://www.w3.org/TR/2001/REC-SVG-20010904/DTD/svg10.dtd">
<svg version="1.0" xmlns="http://www.w3.org/2000/svg"
 width="928.000000pt" height="1066.000000pt" viewBox="0 0 928.000000 1066.000000"
 preserveAspectRatio="xMidYMid meet">
<metadata>
Created by potrace 1.16, written by Peter Selinger 2001-2019
</metadata>
<g transform="translate(0.000000,1066.000000) scale(0.100000,-0.100000)"
fill="#000000" stroke="none">
<path d="M336 10523 c-51 -117 -129 -569 -160 -933 -42 -486 -25 -766 56 -924
45 -89 116 -184 208 -278 l96 -99 -25 -42 c-42 -70 -127 -265 -169 -387 -181
-527 -160 -1065 58 -1501 123 -245 235 -381 470 -568 58 -46 175 -154 261
-240 229 -230 334 -400 376 -610 41 -211 -47 -477 -224 -670 -93 -102 -163
-143 -329 -196 -162 -52 -199 -78 -232 -167 -59 -158 -23 -310 123 -527 246
-368 678 -671 907 -637 88 13 156 87 187 203 6 22 20 106 31 185 11 78 27 168
36 198 20 69 77 130 122 130 28 0 32 -5 52 -57 12 -32 285 -782 607 -1668 322
-886 588 -1613 592 -1617 3 -4 168 17 365 47 198 30 363 55 368 55 4 0 8 6 8
14 0 8 -213 677 -474 1488 -261 810 -473 1474 -472 1476 2 1 63 -3 137 -9 78
-7 226 -9 354 -6 296 7 440 32 757 132 244 77 312 88 538 82 206 -5 234 -9
595 -82 280 -57 432 -75 620 -75 306 0 515 38 860 156 601 206 870 275 1130
290 141 8 250 -6 440 -58 185 -50 246 -50 344 2 238 127 264 489 75 1058 -124
374 -312 787 -529 1162 -355 612 -485 905 -554 1240 -27 134 -39 248 -56 537
-8 138 -19 293 -25 345 -37 307 -143 625 -341 1019 -95 192 -169 309 -246 390
-130 138 -188 142 -400 26 -449 -245 -850 -349 -1343 -349 -230 0 -300 6 -720
62 -433 58 -493 63 -740 63 -467 -1 -662 -53 -1050 -284 -382 -226 -555 -282
-962 -311 -129 -9 -204 -9 -321 0 -137 10 -257 28 -257 37 0 2 5 16 11 32 21
55 58 219 65 283 7 71 -7 187 -33 264 -49 151 -519 743 -908 1145 -141 146
-217 211 -244 211 -11 0 -24 -15 -35 -37z m558 -1043 c148 -143 272 -303 321
-415 39 -88 15 -247 -61 -398 -83 -167 -137 -193 -290 -146 -114 35 -183 76
-261 153 -64 65 -73 79 -93 145 -19 62 -22 88 -17 174 6 116 11 139 109 449
l72 226 60 -46 c34 -26 105 -89 160 -142z m6151 -539 c157 -74 247 -277 217
-489 -30 -213 -98 -309 -497 -706 -188 -187 -289 -296 -356 -385 -99 -131
-158 -182 -232 -202 -90 -24 -144 40 -134 161 8 99 182 546 480 1232 91 208
116 255 173 318 67 73 122 98 224 99 52 1 77 -5 125 -28z m-4991 -766 c178
-33 232 -61 344 -178 320 -337 430 -409 965 -631 258 -107 342 -151 398 -207
50 -50 58 -93 29 -154 -41 -86 -117 -121 -239 -112 -107 8 -170 26 -703 202
-509 168 -631 218 -787 325 -232 159 -396 408 -409 620 -4 67 -2 78 19 104 12
15 36 34 53 42 48 21 186 16 330 -11z m-52 -2220 c362 -1121 659 -2045 661
-2053 1 -9 -56 -35 -182 -83 -101 -38 -185 -68 -186 -67 -11 13 -1355 4101
-1350 4106 9 10 378 140 389 138 5 -1 306 -920 668 -2041z m-1006 842 c149
-458 269 -834 268 -836 -5 -6 -193 123 -279 192 -423 339 -513 739 -309 1375
20 62 39 110 43 107 3 -3 128 -380 277 -838z m3957 555 c87 -89 191 -169 422
-322 331 -219 424 -301 488 -430 30 -60 32 -72 31 -165 -1 -131 -20 -179 -142
-360 -110 -162 -139 -219 -148 -296 -11 -95 25 -235 88 -341 81 -137 102 -279
55 -382 -70 -153 -272 -254 -487 -243 -234 11 -368 134 -378 347 -6 112 13
177 83 295 64 107 75 134 75 183 0 130 -60 187 -370 352 -289 154 -397 238
-448 348 -36 78 -35 167 2 277 59 174 169 336 499 733 l118 143 26 -38 c14
-21 53 -67 86 -101z m1487 -1668 c107 -22 241 -62 531 -158 140 -47 362 -119
494 -160 523 -163 758 -276 948 -455 175 -165 246 -327 250 -571 3 -173 -14
-201 -126 -220 -81 -13 -190 6 -267 46 -95 50 -218 142 -413 306 -527 446
-553 463 -1232 793 -121 59 -250 125 -288 147 -86 50 -182 130 -202 167 -19
39 -4 83 38 111 28 18 41 20 112 15 44 -4 114 -13 155 -21z m-2073 -76 c33
-37 45 -68 45 -117 0 -91 -64 -198 -251 -420 -291 -346 -318 -401 -561 -1156
-72 -223 -136 -363 -181 -396 -29 -20 -35 -21 -83 -10 -116 26 -256 143 -339
282 -20 35 -54 114 -74 174 -34 100 -37 120 -37 220 0 133 16 179 106 317 101
155 203 273 413 484 463 463 868 725 962 622z m-2637 -1291 c0 -1 34 -97 76
-212 44 -124 74 -220 71 -235 -10 -62 -120 -456 -143 -514 -30 -76 -77 -133
-119 -145 -68 -19 -158 24 -315 150 -225 181 -321 342 -266 447 22 43 101 111
231 200 66 45 194 133 285 196 147 102 180 123 180 113z"/>
</g>
</svg>
