<?xml version="1.0" standalone="no"?>
<!DOCTYPE svg PUBLIC "-//W3C//DTD SVG 20010904//EN"
 "http://www.w3.org/TR/2001/REC-SVG-20010904/DTD/svg10.dtd">
<svg version="1.0" xmlns="http://www.w3.org/2000/svg"
 width="1076.000000pt" height="1314.000000pt" viewBox="0 0 1076.000000 1314.000000"
 preserveAspectRatio="xMidYMid meet">
<metadata>
Created by potrace 1.16, written by Peter Selinger 2001-2019
</metadata>
<g transform="translate(0.000000,1314.000000) scale(0.100000,-0.100000)"
fill="#000000" stroke="none">
<path d="M5930 12986 c-328 -42 -616 -131 -930 -287 -359 -178 -679 -432 -872
-689 -175 -235 -263 -531 -275 -936 -9 -294 25 -576 103 -863 33 -119 34 -125
17 -150 -20 -32 -728 -1051 -790 -1138 l-45 -63 -39 60 c-71 106 -197 200
-340 254 -213 80 -518 75 -742 -12 -311 -121 -511 -388 -483 -643 15 -132 67
-230 177 -333 l69 -66 127 -1661 c83 -1085 124 -1665 118 -1673 -6 -7 -45 -58
-88 -112 -190 -242 -356 -522 -587 -989 -158 -319 -274 -577 -391 -867 -34
-84 -62 -154 -63 -155 -1 -1 -40 11 -86 26 -173 58 -310 64 -355 15 -69 -74
-169 -570 -261 -1284 -14 -113 -24 -224 -21 -248 21 -191 533 -583 1032 -790
633 -262 1241 -323 1960 -197 205 36 364 72 905 205 801 197 1142 258 1680
301 189 16 967 15 1320 0 740 -33 1062 -73 2200 -275 446 -79 476 -83 494 -68
83 76 164 376 198 737 26 286 14 884 -27 1230 -7 61 -11 111 -10 113 1 1 38 9
81 16 105 19 227 50 316 82 108 38 288 125 288 139 0 7 -57 158 -126 336 -182
470 -369 964 -405 1070 -29 86 -31 107 -40 303 -12 271 -24 367 -55 436 -52
114 -95 136 -264 134 -136 -2 -308 -29 -715 -113 -493 -101 -587 -115 -775
-115 -148 0 -171 2 -221 22 -73 29 -134 82 -165 144 -48 95 -55 155 -64 573
-4 215 -11 449 -15 520 -16 297 42 482 209 662 l58 62 261 -131 c616 -308
1021 -482 1168 -503 37 -5 49 -3 64 11 42 43 -3 269 -128 639 -129 381 -207
584 -626 1633 -165 414 -304 764 -307 779 -6 21 -4 24 12 19 83 -25 296 -65
474 -88 149 -19 570 -16 710 5 382 59 691 194 914 399 l68 63 -153 69 c-393
176 -928 475 -1325 740 l-92 61 92 30 c50 16 156 62 236 101 406 201 748 516
996 916 64 103 210 396 201 404 -2 3 -74 -8 -158 -25 -163 -32 -380 -62 -594
-83 -203 -20 -828 -17 -1045 5 -151 16 -436 53 -464 61 -6 1 17 18 49 36 158
91 374 285 477 430 53 75 118 192 147 268 l21 52 -108 0 c-522 0 -1239 110
-2027 310 -126 32 -273 66 -325 75 -128 23 -495 29 -640 11z m398 -367 c204
-28 434 -76 797 -164 510 -125 802 -184 988 -201 43 -4 80 -10 82 -14 8 -13
-167 -172 -298 -273 -323 -247 -454 -362 -426 -371 25 -8 298 -64 538 -111
423 -81 782 -126 1281 -160 129 -9 265 -19 302 -23 l68 -7 -188 -161 c-407
-350 -613 -485 -969 -634 -73 -30 -132 -59 -130 -65 1 -5 60 -55 132 -109 71
-55 213 -165 315 -246 304 -241 468 -352 729 -496 66 -36 109 -65 100 -68
-174 -61 -529 -91 -784 -67 -245 23 -559 90 -823 176 -63 20 -116 35 -118 33
-11 -12 78 -271 244 -711 46 -120 56 -157 44 -152 -9 3 -91 47 -182 97 -555
307 -1040 634 -1277 862 -29 27 -55 48 -58 45 -2 -3 43 -320 101 -703 57 -384
103 -700 101 -703 -6 -5 -99 71 -217 176 -359 320 -701 706 -950 1072 l-90
132 1 -149 c0 -82 8 -428 18 -769 10 -341 17 -621 16 -623 -1 -1 -45 30 -96
69 -578 443 -1051 1057 -1273 1652 -199 533 -186 1199 33 1689 35 76 136 205
260 329 217 217 465 377 766 494 247 97 454 142 798 173 9 1 83 -7 165 -19z
m-2180 -3062 c46 -93 95 -164 224 -318 48 -59 88 -109 88 -112 0 -2 -277 -377
-615 -833 l-614 -829 -390 -56 -390 -55 67 95 c176 255 1579 2191 1587 2191 2
0 21 -37 43 -83z m3838 -1178 c165 -55 304 -106 311 -112 12 -12 496 -1337
491 -1343 -7 -6 -731 334 -738 347 -4 8 -85 271 -180 584 -201 664 -189 625
-185 625 1 0 137 -45 301 -101z m-2360 -791 c-3 -18 -11 -78 -16 -133 -64
-593 -194 -1010 -358 -1153 -38 -32 -110 -68 -155 -76 -46 -9 -134 8 -203 39
-42 19 -57 33 -88 83 -78 129 -189 198 -333 209 -67 5 -430 -10 -535 -23 l-46
-6 -46 59 c-75 94 -72 135 16 270 93 144 281 403 292 403 6 0 191 -43 411 -95
220 -52 403 -95 406 -95 3 0 19 94 34 210 16 115 31 214 34 218 4 6 499 109
584 121 4 0 6 -14 3 -31z m-1916 -343 c0 -5 -107 -174 -215 -340 -106 -163
-128 -212 -133 -306 -5 -88 9 -139 70 -262 l39 -78 -50 -82 c-151 -251 -203
-418 -168 -538 31 -105 104 -148 308 -183 l36 -6 6 -73 c8 -92 46 -225 93
-320 66 -137 152 -222 263 -263 67 -26 98 -50 111 -89 23 -70 -21 -168 -119
-266 -84 -83 -146 -115 -223 -112 -90 2 -140 31 -249 143 -112 117 -161 144
-287 159 -126 16 -161 30 -219 86 -46 45 -52 55 -57 105 -9 85 -119 2250 -115
2253 3 3 878 173 902 176 4 1 7 -1 7 -4z m3730 -963 c0 -44 3 -174 7 -290 l6
-212 -25 0 c-87 0 -1062 -178 -1316 -241 -214 -52 -265 -72 -301 -116 -69 -83
-213 -379 -421 -859 l-117 -271 -304 127 c-207 87 -303 132 -301 141 15 62
320 764 427 984 105 216 152 288 203 314 122 62 687 201 1677 410 231 49 430
90 443 90 21 1 22 -3 22 -77z m-3088 -43 c93 -26 138 -50 178 -96 92 -104 169
-387 170 -620 0 -115 -15 -189 -46 -220 -30 -30 -37 -27 -210 87 -283 188
-429 260 -646 320 -62 17 -125 36 -140 42 -94 36 -81 141 36 293 60 76 113
119 203 162 133 64 297 75 455 32z m5279 -2056 c99 -394 223 -792 354 -1132
37 -95 63 -177 58 -182 -12 -12 -275 -75 -415 -98 -420 -71 -989 -81 -1468
-25 -69 7 -136 16 -150 19 l-25 6 26 213 c46 363 71 674 95 1189 l6 127 307 0
c168 0 380 5 471 10 181 12 536 46 615 59 28 5 56 8 64 7 10 -1 29 -61 62
-193z m-6615 136 c237 -43 374 -313 374 -736 0 -285 -69 -611 -173 -818 -107
-215 -330 -428 -646 -619 -93 -57 -319 -173 -417 -215 l-51 -22 -459 302
c-253 165 -460 303 -462 304 -2 2 37 101 86 222 50 120 145 355 212 523 184
461 252 593 358 693 130 121 679 331 957 366 101 12 153 12 221 0z m1578 -59
c228 -71 740 -335 1211 -625 560 -345 1105 -739 1633 -1179 72 -60 132 -115
132 -121 0 -14 -62 -213 -100 -320 -39 -109 -137 -340 -187 -438 -83 -167
-276 -486 -294 -487 -3 0 -59 48 -125 106 -718 640 -1491 1159 -2589 1739
-293 155 -428 232 -473 270 -50 42 -67 109 -66 260 1 149 29 290 85 435 27 71
42 95 93 145 95 94 258 168 474 215 112 24 127 24 206 0z m-1175 -2170 c99
-192 113 -337 45 -475 -53 -106 -178 -199 -304 -226 -31 -7 -96 -9 -154 -7
-114 6 -196 32 -291 92 -57 37 -145 113 -145 126 0 4 38 32 84 63 152 101 486
385 636 542 l35 36 23 -28 c12 -15 44 -71 71 -123z"/>
<path d="M4337 3956 c-72 -30 -119 -66 -159 -120 -136 -185 -79 -437 124 -547
60 -33 67 -34 168 -34 126 0 172 17 254 95 80 75 111 149 111 265 0 116 -31
190 -111 265 -75 71 -129 93 -239 97 -78 3 -98 0 -148 -21z"/>
</g>
</svg>
